<svg width="725" height="530" viewBox="0 0 725 530" xmlns="http://www.w3.org/2000/svg" xmlns:xlink="http://www.w3.org/1999/xlink"><title>illustration@1x</title><defs><path id="a" d="M41.027.14L.04 57.67l49.795 86.357 73.714 2.637z"/></defs><g fill="none" fill-rule="evenodd"><path fill="#D3D3D3" d="M0 348h725v-2H0z"/><path fill="#FFF" d="M339 72h69V0h-69zM339 158h69V86h-69zM339 243h69v-72h-69zM626 72h69V0h-69zM626 158h69V86h-69zM626 243h69v-72h-69zM421 72h192V0H421zM421 158h192V86H421zM421 243h192v-72H421zM52 384h261V114H52z"/><path fill="#E3E3E3" d="M64 198h69v-72H64zM64 284h69v-72H64zM64 370h69v-72H64zM147 198h69v-72h-69zM147 284h69v-72h-69zM147 370h69v-72h-69zM229 198h69v-72h-69zM229 284h69v-72h-69zM229 370h69v-72h-69z"/><path fill="#584A60" d="M247 197.561L237.8 199l-8.8-57.561 9.2-1.439z"/><path fill="#AFAFAF" d="M268 195.49l-7.217 2.51L245 152.51l7.217-2.51z"/><path fill="#D3D3D3" d="M252 198.267l-4.65.733L237 130.733l4.65-.733zM191 283.561l9.2 1.439 8.8-57.561-9.2-1.439z"/><path fill="#AFAFAF" d="M175 281.49l7.217 2.51L198 238.51l-7.217-2.51zM201 283.267l4.65.733L216 215.733l-4.65-.733z"/><path d="M369.38 368.343c-.114-.697-11.437-70.197-11.437-116.97 0-46.816 11.34-94.236 11.454-94.71l2.149.521c-.114.471-11.392 47.645-11.392 94.188 0 46.595 11.294 115.917 11.408 116.612l-2.181.359z" fill="#D3D3D3"/><path d="M370.119 158.58s-8.128-7.876-4.583-18.714c4.067-12.437 16.975-18.18 16.975-18.18s5.785 12.983 2.736 23.65c-2.934 10.264-15.128 13.243-15.128 13.243" fill="#D3D3D3"/><path d="M370.119 158.58s-8.128-7.876-4.583-18.714c4.067-12.437 16.975-18.18 16.975-18.18M389.174 395.672h-47.382l-8.264-59.525h63.91zM365.9 181.39s4.17-14.504 19.124-17.11c17.16-2.991 31.986 8.623 31.986 8.623s-11.636 14.94-26.08 18.023c-13.898 2.966-25.03-9.536-25.03-9.536" fill="#C3C3C3"/><path d="M365.9 181.39s4.17-14.504 19.124-17.11c17.16-2.991 31.986 8.623 31.986 8.623" fill="#D3D3D3"/><path d="M361.583 212.306s9.168-12.533 24.543-9.738c17.642 3.208 27.852 19.7 27.852 19.7s-16.54 10.302-31.59 8.147c-14.48-2.072-20.805-18.11-20.805-18.11" fill="#C3C3C3"/><path d="M361.583 212.306s9.168-12.533 24.543-9.738c17.642 3.208 27.852 19.7 27.852 19.7M360.846 212.008s-6.6 13.568-21.78 13.557c-17.419-.012-30.026-14.01-30.026-14.01s14.032-12.71 28.79-13.256c14.2-.526 23.016 13.71 23.016 13.71" fill="#D3D3D3"/><path d="M360.846 212.008s-6.6 13.568-21.78 13.557c-17.419-.012-30.026-14.01-30.026-14.01" fill="#C3C3C3"/><path d="M365.497 181.426s-10.786 8.025-22.794 1.776c-13.78-7.169-18.017-23.428-18.017-23.428s16.316-4.29 28.218 1.343c11.453 5.421 12.593 20.31 12.593 20.31" fill="#D3D3D3"/><path d="M365.497 181.426s-10.786 8.025-22.794 1.776c-13.78-7.169-18.017-23.428-18.017-23.428M359.62 244.795s6.07-7.798 15.797-5.727c11.162 2.376 17.343 13.061 17.343 13.061s-10.717 6.238-20.25 4.582c-9.171-1.594-12.89-11.916-12.89-11.916" fill="#C3C3C3"/><path d="M359.62 244.795s6.07-7.798 15.797-5.727c11.162 2.376 17.343 13.061 17.343 13.061M358.572 244.53s-2.314 10.434-12.772 12.93c-12 2.865-22.988-4.697-22.988-4.697s7.575-11.07 17.651-13.881c9.695-2.704 18.11 5.647 18.11 5.647" fill="#D3D3D3"/><path d="M358.572 244.53s-2.314 10.434-12.772 12.93c-12 2.865-22.988-4.697-22.988-4.697" fill="#C3C3C3"/><path d="M524.069 420.93s-.315 6.127 11.576 13.105c3.509 2.059 7.628 8.894 2.894 14.739-4.125 5.092-18.562 18.65-21.317 21.628-6.298 6.807-19.292 5.933-28.467 5.315-7.966-.536-6.977-10.672 2.03-10.066 4.188.282 16.921-10.559 19.005-19.148 1.394-5.745-3.083-8.993-3.083-8.993l17.362-16.58z" fill="#CFCFCF"/><path d="M456.7 357.12c-1.153 23.714 39.963 76.224 39.963 76.224l-3.407 2.489 6.462 8.605s7.775-1.399 19.556-10.058c11.782-8.66 13.844-13.167 13.844-13.167l-7.089-8.809-2.315 1.126s-6.29-13.56-10.097-23.59l-3.807-10.029s17.952-10.006 33.968-12.613c16.016-2.608 28.807 7.065 49.778 11.68 20.971 4.616 29.728-12.8 31.621-26.02 1.894-13.22-41.381-31.191-61.853-36.094-20.472-4.902-27.652-3.451-27.652-3.451s-16.175 3.226-44.59 18.937c-28.417 15.711-34.383 24.77-34.383 24.77" fill="#201823"/><path d="M534.979 421.822s.096 6.135 12.427 12.298c3.64 1.82 8.207 8.363 3.875 14.512-3.775 5.358-17.272 19.854-19.821 23.01-5.828 7.215-18.852 7.215-28.047 7.215-7.983 0-7.676-10.18 1.351-10.18 4.198 0 16.176-11.67 17.68-20.38 1.007-5.826-3.678-8.766-3.678-8.766l16.213-17.709z" fill="#AFAFAF"/><path d="M463.488 362.68c.438 23.737 44.977 73.368 44.977 73.368l-3.232 2.713 7.024 8.152s7.663-1.919 18.839-11.35c11.175-9.43 12.931-14.067 12.931-14.067l-7.663-8.311-2.235 1.278s-7.184-13.108-11.654-22.859l-4.47-9.75s17.242-11.19 33.047-14.867c15.804-3.676 29.215 5.116 50.448 8.313 21.233 3.196 28.803-14.768 29.807-28.085 1.005-13.317-43.377-28.343-64.131-31.86-20.754-3.516-27.82-1.587-27.82-1.587s-15.924 4.305-43.223 21.888c-27.3 17.584-32.645 27.024-32.645 27.024" fill="#362D3A"/><path d="M615.505 252.848s4.405-21.03 20.791-21.03c14.934 0 15.983 8.265 15.983 8.265l-13.024 21.25-23.75-8.485z" fill="#C3C3C3"/><path d="M410.662 306.415s3.706-12.4 20.937-17.462c6.104-1.794 24.896 7.614 24.896 7.614s27.905-10.132 39.758-17.325c11.853-7.193 30.289-52.946 30.289-52.946l29.042 23.815s-22.227 37.274-26.645 41.479c-21.227 10.696-72.444 16.046-72.444 16.046l-45.833-1.22z" fill="#CFCFCF"/><path d="M484.15 141.056l3.012 13.505-.896 18.749a2.838 2.838 0 0 0 3 2.97l3.271-.192s1.437 12.51 3.075 20.38c1.637 7.868 4.257 13.442 4.257 13.442s11.46-5.574 21.285-11.476c9.823-5.901 9.823-7.54 9.823-7.54l5.567 7.868s10.692 12.082 24.52 1.43c14.84-11.43.876-17.48.876-17.48s-5.914-4.046-9.334-13.131c-4.239-11.262-4.6-25.247-12.787-35.083-8.187-9.836-31.436-14.098-41.26-7.213-9.824 6.885-14.409 13.77-14.409 13.77" fill="#AFAFAF"/><path d="M539.356 313.768s-11.494-39.561-13.29-64.736c-1.796-25.176 3.591-42.08 11.494-48.912 6.078 6.426 18.518 3.082 25.788-4.136 7.94-7.885-1.247-13.1-1.247-13.1s18.202-3.264 40.472 19.753c22.27 23.018 30.171 41 33.045 73.368 2.873 32.368-4.31 71.21-4.31 71.21s-25.862-1.798-52.442-17.622c-26.58-15.825-39.51-15.825-39.51-15.825" fill="#E3E3E3"/><path d="M545.48 215.216c-11.122 2.988-9.032 17.438-9.028 17.399.922-9.282 6.14-13.163 9.857-13.71 24.595-3.613 36.57 15.788 36.57 15.788-8.659-18.186-29.846-21.506-37.4-19.477" fill="#D3D3D3"/><path d="M429.829 276.334c2.276-4.034 7.566-11.48 10.99-15.887a11.865 11.865 0 0 1 6.655-4.284c7.823-1.836 21.27-2.141 31.038-.574a9.917 9.917 0 0 1 2.847.926c13.874 6.904 37.525 12.607 42.75 13.304 5.387.72 12.821-31.494 12.821-31.494 1.18-6.322 12.32-8.857 29.921.134 17.6 8.991 11.297 17.422 11.297 17.422s-17.96 37.564-24.425 45.567c-12.572 8.724-49.927-10.338-61.78-18.25-11.854-7.912-17.732-12.947-17.732-12.947l-11.364 6.877a11.497 11.497 0 0 1-12.62-.468l-7.493-5.33-7.604 8.741a3.256 3.256 0 0 1-4.543.364 3.259 3.259 0 0 1-.758-4.1" fill="#AFAFAF"/><path d="M628.12 389.433a5.16 5.16 0 0 1-4.796 5.152c-7.638.534-22.316 1.502-28.31 1.502s-20.671-.968-28.31-1.502a5.159 5.159 0 0 1-4.796-5.152v-3.104h66.213v3.104z" fill="#C3C3C3"/><path d="M650.31 256.537c9.212-24.74-9.182-31.18-18.986-6.663-14.95 37.386 2.112 65.109 1.153 94.788-1.153 16.654-15.65 22.568-30.99 18.13-22.241-6.435-49.956-3.936-63.192.492-10.572 3.536-11.353 9.633-10.127 12.847 4.231 11.103 36.263 14.34 66.846 14.34 25.625 0 51.61 1.283 59.34-17.854 15.653-38.758-18.057-78.448-4.045-116.08" fill="#D3D3D3"/><path d="M663.451 351.478c-.001-10.777-5.674-16.386-25.413-18.723-33.05-3.912-50.164-6.195-55.152-6.195-4.989 0-15.795 6.614-8.85 21.72 6.945 15.106 22.6 42.192 22.6 42.192h10.071s-20.134-40.829-22.529-45.145c-2.394-4.315-.07-7.377 4.805-6.453 6.815 1.292 28.36 6.085 51.132 13.342 12.216 3.893 5.44 23.157 4.265 26.321-2.896 7.792-16.26 10.896-16.26 10.896s35.336 1.775 35.331-37.955" fill="#C3C3C3"/><path d="M543.538 116.938c-.311-3.696 3.755-3.224 10.9-12.858 6.792-9.16-7.876-17.974-13.475-11.472-3.212 3.731-3.477 11.229-3.82 14.374-.507 4.667-3.163 5.093-7.385 3.766-16.608-5.813-33.074-1.79-42.092 9.185-10.581 12.878-18.14 11.7-18.14 11.7 12.934 18.331 29.109 4.909 37.12 6.055 9.405 1.345 12.215 6.974 11.56 13.204-.654 6.23-1.269 14.399-4.354 20.514-1.273 2.523-21.315 4.682-21.315 4.682l.854 6.262 16.166-2.179s3.849 7.939-.98 9.903c-5.375 2.186-13.72 2.42-13.72 2.42-4.42 10.782 7.254 22.722 7.254 22.722s-1.215-2.778 1.511-5.718c2.184-2.354 11.59-2.859 19.608-8.414 6.876-4.764 8.836-8.787 9.617-12.888.54-2.832.422-9.762-1.87-11.074-2.292-1.311-8.375-2.268-7.515-7.799.252-1.62 2.327-8.595 2.654-16.791.328-8.198 5.844-5.902 8.464-1.312 1.145 2.008 1.124 4.859 1.487 7.374 1.035 7.179 13.706 1.334 13.706 1.334s-.549-3.931 1.326-10.973c1.344-5.045 1.456-17.714-1.898-23.002 6.996.13 6.601-5.7 6.601-5.7-6.83 3.812-11.952.38-12.264-3.315" fill="#201823"/><path d="M534.651 111.185s.097 2.023 3.655 4.051c3.64 2.075 5.232 1.702 5.232 1.702l1.943-3.607s-2.612-.711-4.74-1.907c-2.413-1.355-3.819-3.149-3.819-3.149l-2.27 2.91z" fill="#AFAFAF"/><path fill="#C3C3C3" d="M587.064 454.69h15.9v-60.448h-15.9zM538.663 469.772a6.313 6.313 0 0 1 6.31-6.317 6.313 6.313 0 0 1 6.308 6.317 6.313 6.313 0 0 1-6.309 6.317 6.313 6.313 0 0 1-6.309-6.317M640.052 469.772a6.313 6.313 0 0 1 6.309-6.317 6.313 6.313 0 0 1 6.309 6.317 6.313 6.313 0 0 1-6.31 6.317 6.313 6.313 0 0 1-6.308-6.317M593 467.079h4.028a2.753 2.753 0 0 1 2.751 2.755v7.28a2.753 2.753 0 0 1-2.751 2.755H593a2.754 2.754 0 0 1-2.751-2.756v-7.279a2.754 2.754 0 0 1 2.751-2.755"/><path d="M646.36 461.241c-.649 0-1.28.076-1.888.214-7.699-2.356-33.47-10.266-41.507-10.266h-15.901c-8.379 0-32.85 7.865-40.268 10.251a8.494 8.494 0 0 0-1.824-.199c-2.272 0-4.41.889-6.022 2.501l1.042 1.043a6.991 6.991 0 0 1 4.898-2.064c.028 0 .055-.004.082-.004 1.51 0 2.907.482 4.056 1.295a7.05 7.05 0 0 1 2.99 5.76h1.474a8.51 8.51 0 0 0-2.688-6.21c9.515-2.4 29.436-7.208 36.26-7.208h4.234l.631 8.63a4.974 4.974 0 0 0-3.891 4.85h1.474a3.497 3.497 0 0 1 3.489-3.493h4.027a3.497 3.497 0 0 1 3.489 3.493h1.473a4.974 4.974 0 0 0-3.89-4.85l.63-8.63h4.235c6.566 0 27.602 4.872 37.511 7.258a8.51 8.51 0 0 0-2.635 6.16h1.474a7.048 7.048 0 0 1 2.948-5.728 6.992 6.992 0 0 1 4.098-1.327l.063.003a6.993 6.993 0 0 1 4.916 2.065l1.042-1.043a8.456 8.456 0 0 0-6.021-2.5M222.503 327.935h237.282v-15.06H222.503z" fill="#D2D2D2"/><path d="M344.977 313.24h92.22a3.687 3.687 0 0 0 3.685-3.69v-2.209l-99.59-3.563v5.773c0 2.037 1.65 3.689 3.685 3.689M286.642 224.488l46.11 79.967a3.682 3.682 0 0 0 5.034 1.35l3.506-2.027-49.794-86.357-3.507 2.027a3.692 3.692 0 0 0-1.349 5.04" fill="#362D3A"/><g transform="translate(291.458 159.75)"><mask id="b" fill="#EEE"><use xlink:href="#a"/></mask><path mask="url(#b)" d="M41.027.14L.04 57.67l49.795 86.357 73.714 2.637z"/></g><path fill="#D2D2D2" d="M245.878 465.46h-9.028l7.37-141.214h11.975zM436.41 465.46h9.027l-7.37-141.214h-11.974z"/><path fill="#EEE" d="M451.915 406.826l-5.75 73.775h-46.866l-5.75-73.775h-3.623L396.175 487h53.114l6.249-80.174z"/><path d="M438.359 467.377l3.576-3.58 3.576 3.58-3.576 3.58-3.576-3.58zm-1.325 8.488l-3.576-3.581 3.575-3.58 3.576 3.58-3.575 3.58zm-8.477-8.488l3.576-3.58 3.575 3.58-3.575 3.58-3.576-3.58zm-1.326 8.488l-3.575-3.58 3.576-3.581 3.575 3.58-3.576 3.58zm-8.477-8.488l3.576-3.58 3.576 3.58-3.576 3.58-3.576-3.58zm-1.325 8.488l-3.576-3.58 3.576-3.581 3.576 3.58-3.576 3.58zm-8.477-8.488l3.576-3.58 3.576 3.58-3.576 3.58-3.576-3.58zm-1.325 8.488l-3.576-3.581 3.576-3.58 3.575 3.58-3.575 3.58zm-8.478-8.488l3.576-3.58 3.576 3.58-3.576 3.58-3.576-3.58zm0-9.816l3.576-3.58 3.576 3.58-3.576 3.581-3.576-3.58zm0-9.814l3.576-3.581 3.576 3.58-3.576 3.581-3.576-3.58zm0-9.815l3.576-3.58 3.576 3.58-3.576 3.58-3.576-3.58zm0-9.816l3.576-3.58 3.576 3.58-3.576 3.58-3.576-3.58zm0-9.815l3.576-3.58 3.576 3.58-3.576 3.58-3.576-3.58zm-4.901-4.907l3.576-3.58 3.575 3.58-3.575 3.58-3.576-3.58zm13.379-3.58l3.575 3.58-3.575 3.58-3.576-3.58 3.576-3.58zm8.477 8.487l-3.576 3.581-3.576-3.58 3.576-3.581 3.576 3.58zm1.325-8.487l3.576 3.58-3.576 3.58-3.576-3.58 3.576-3.58zm8.477 8.487l-3.576 3.581-3.576-3.58 3.576-3.581 3.576 3.58zm1.325-8.487l3.576 3.58-3.575 3.58-3.576-3.58 3.575-3.58zm8.477 8.487l-3.575 3.58-3.576-3.58 3.576-3.58 3.575 3.58zm1.326-8.487l3.575 3.58-3.576 3.58-3.575-3.58 3.576-3.58zm8.477 8.487l-3.576 3.581-3.576-3.58 3.576-3.581 3.576 3.58zm1.325-8.487l3.576 3.58-3.576 3.58-3.576-3.58 3.576-3.58zm3.576 13.395l-3.576 3.58-3.576-3.58 3.576-3.58 3.576 3.58zm-8.477 8.488l-3.576-3.58 3.576-3.58 3.576 3.58-3.576 3.58zm3.576 6.235l-3.576 3.58-3.576-3.58 3.576-3.58 3.576 3.58zm0 9.815l-3.576 3.58-3.576-3.58 3.576-3.581 3.576 3.58zm-8.477 11.142l3.575 3.58-3.576 3.58-3.575-3.58 3.576-3.58zm-8.478-1.328l3.577-3.58 3.576 3.58-3.576 3.581-3.577-3.58zm-1.325 1.328l3.576 3.58-3.575 3.58-3.576-3.58 3.575-3.58zm-8.477-1.328l3.576-3.58 3.575 3.58-3.575 3.581-3.576-3.58zm-1.325 1.328l3.576 3.58-3.576 3.58-3.576-3.58 3.576-3.58zm-8.477-1.328l3.576-3.58 3.576 3.58-3.576 3.581-3.576-3.58zm2.25 4.908l-3.575 3.58-3.576-3.58 3.576-3.58 3.575 3.58zm0-9.815l-3.575 3.58-3.576-3.58 3.576-3.58 3.575 3.58zm0-9.815l-3.575 3.58-3.576-3.58 3.576-3.58 3.575 3.58zm0-9.815l-3.575 3.58-3.576-3.58 3.576-3.58 3.575 3.58zm-3.575-6.235l-3.576-3.58 3.576-3.58 3.575 3.58-3.575 3.58zm8.477 1.328l-3.576 3.58-3.576-3.58 3.576-3.58 3.576 3.58zm1.325-1.327l-3.576-3.58 3.576-3.581 3.576 3.58-3.576 3.58zm8.476 1.326l-3.575 3.58-3.576-3.58 3.576-3.58 3.575 3.58zm1.326-1.327l-3.575-3.58 3.576-3.58 3.575 3.58-3.576 3.58zm8.478 1.327l-3.576 3.58-3.577-3.58 3.577-3.58 3.576 3.58zm-2.251-4.907l3.575-3.58 3.576 3.58-3.575 3.58-3.576-3.58zm0 9.815l3.576-3.58 3.575 3.58-3.575 3.58-3.576-3.58zm0 9.815l3.576-3.58 3.575 3.58-3.575 3.58-3.576-3.58zm3.576 6.235l3.575 3.58-3.575 3.58-3.576-3.58 3.576-3.58zm-8.477-1.327l3.576-3.581 3.575 3.58-3.575 3.581-3.576-3.58zm-1.326 1.327l3.576 3.58-3.576 3.58-3.576-3.58 3.576-3.58zm-8.477-1.327l3.576-3.581 3.576 3.58-3.576 3.581-3.576-3.58zm-1.325 1.327l3.576 3.58-3.576 3.58-3.576-3.58 3.576-3.58zm-1.325-1.327l-3.576 3.58-3.576-3.58 3.576-3.581 3.576 3.58zm0-9.816l-3.576 3.581-3.576-3.58 3.576-3.58 3.576 3.58zm1.325-1.327l-3.576-3.58 3.576-3.58 3.576 3.58-3.576 3.58zm3.576 6.235l-3.576 3.58-3.576-3.58 3.576-3.58 3.576 3.58zm4.9-4.907l-3.575 3.58-3.576-3.58 3.576-3.58 3.575 3.58zm1.326-1.327l-3.576-3.581 3.576-3.58 3.576 3.58-3.576 3.58zm3.576 6.234l-3.576 3.58-3.575-3.58 3.575-3.58 3.576 3.58zm-2.25-4.907l3.576-3.58 3.575 3.58-3.575 3.58-3.577-3.58zm16.954 19.63l-3.576 3.58-3.576-3.58 3.576-3.58 3.576 3.58zm1.045 18.022l-3.296-3.3 3.576-3.58.237.237.265-3.394-.502.502-3.576-3.58 3.576-3.58.947.948.385-4.936-1.332 1.333-3.576-3.58 3.576-3.58 1.657 1.658.192-2.462-.523-.523.611-.613.224-2.878-2.16 2.163-3.577-3.58 3.576-3.58 2.366 2.369.192-2.462-1.232-1.234 1.441-1.444.224-2.878-2.99 2.995-3.577-3.581 3.576-3.58 3.076 3.08.192-2.463-1.942-1.945 2.27-2.273.382-4.886-2.652-2.656 3.1-3.104.261-3.345-2.383-2.385h-4.608l-2.597 2.6-2.597-2.6h-4.608l-2.597 2.6-2.598-2.6h-4.608l-2.597 2.6-2.597-2.6h-4.609l-2.596 2.6-2.597-2.6h-4.609l-2.597 2.6-2.597-2.6h-4.609l-1.636 1.639.387 4.964 2.229 2.231-1.907 1.909.192 2.462 3.04-3.043 3.575 3.58-3.575 3.58-2.949-2.952.224 2.879 1.4 1.4-1.197 1.198.192 2.463 2.33-2.333 3.575 3.58-3.575 3.58-2.12-2.122.225 2.88.57.57-.488.487.193 2.462 1.62-1.622 3.576 3.58-3.576 3.58-1.29-1.29.379 4.857.91-.912 3.576 3.58-3.575 3.58-.46-.46.259 3.316.2-.201 3.576 3.58-3.259 3.264.279 3.566 2.98 2.985-2.549 2.553.398 5.108.655.656h2.65l-3.404-3.41 3.576-3.58 3.576 3.58-3.405 3.41h2.65l2.08-2.082 2.08 2.082h2.65l-3.404-3.41 3.576-3.58 3.576 3.581-3.406 3.409h2.652l2.079-2.082 2.08 2.082h2.65l-3.405-3.409 3.576-3.581 3.575 3.58-3.404 3.41h2.65l2.08-2.082 2.08 2.082h2.65l-3.405-3.41 3.577-3.58 3.576 3.58-3.406 3.41h2.651l2.08-2.082 2.08 2.082h2.65l-3.405-3.41 3.576-3.58 3.576 3.58-3.405 3.41h2.65l1.528-1.53.272-3.487z" fill="#EEE"/></g></svg>